<svg width="1080" height="1080" viewBox="0 0 1080 1080" fill="none" xmlns="http://www.w3.org/2000/svg">
<g clip-path="url(#clip0_1001_90)">
<path d="M367.849 805.66L355.992 812.495L356.001 798.809C356.001 798.809 355.835 805.808 358.994 807.557C362.088 809.271 367.849 805.66 367.849 805.66Z" fill="#8E3315"/>
<path d="M63.5723 791.553C130.401 917.93 244.699 1012.56 381.322 1054.67C517.945 1096.77 665.701 1082.88 792.087 1016.05C918.473 949.214 1013.13 834.915 1055.25 698.295C1097.36 561.675 1083.19 413.921 1016.36 287.544C1076.62 477.468 866.818 544.191 866.818 544.191L612.891 676.903L348.989 814.544C348.989 814.544 169.127 930.331 63.5723 791.553Z" fill="#473ADE"/>
<path d="M62.6273 792.481C129.456 918.858 243.754 1013.51 380.377 1055.61C516.999 1097.72 664.756 1083.83 791.142 1016.99C917.527 950.159 1012.19 835.86 1054.3 699.24C1096.42 562.62 1082.53 414.87 1015.7 288.493C1075.96 478.417 865.873 545.136 865.873 545.136L611.946 677.848L348.044 815.489C348.044 815.489 168.182 931.259 62.6273 792.481Z" fill="url(#paint0_linear_1001_90)"/>
<path d="M860.061 531.011L879.664 540.54L858.971 548.844C858.971 548.844 867.849 544.651 868.91 540.54C869.948 536.515 860.061 531.011 860.061 531.011Z" fill="#251E73"/>
<path d="M1019.63 785.914C1084.89 658.719 1096.94 510.809 1053.14 374.72C1009.34 238.632 913.273 125.513 786.07 60.249C658.867 -5.01501 510.95 -17.0782 374.858 26.7131C238.767 70.5044 125.649 166.563 60.3895 293.757C181.487 135.524 356.571 269.446 356.571 269.446L610.857 401.468L874.9 538.839C874.9 538.839 1072.85 619.877 1019.63 785.914Z" fill="#D71D6A"/>
<path d="M1018.33 785.398C1083.4 658.583 1095.42 511.113 1051.75 375.429C1008.08 239.746 912.295 126.964 785.47 61.8948C658.646 -3.17475 511.17 -15.2021 375.483 28.4588C239.797 72.1197 127.016 167.892 61.9511 294.708C182.688 136.945 357.251 270.469 357.251 270.469L610.78 402.097L874.036 539.059C874.036 539.059 1071.4 619.856 1018.33 785.398Z" fill="url(#paint1_linear_1001_90)"/>
<path d="M356.073 282.228L355.852 267.897L368.373 274.871C368.373 274.871 362.052 271.157 358.843 273.158C355.7 275.118 356.073 282.228 356.073 282.228Z" fill="#741039"/>
<path d="M540.044 0.687965C397.085 0.687971 259.982 57.4819 158.895 158.576C57.8078 259.67 1.01768 396.783 1.01768 539.751C1.01768 682.719 57.8078 819.832 158.895 920.926C259.982 1022.02 396.899 1078.54 539.858 1078.54C356.381 1047.74 356.568 810.3 356.568 810.3L356.568 539.751L356.568 264.416C356.568 264.416 356.568 33.5277 540.044 0.687965Z" fill="#FF5B25"/>
<path d="M540.044 -0.569824C397.085 -0.569824 259.982 56.2241 158.895 157.318C57.8078 258.412 1.01771 395.525 1.0177 538.493C1.01769 681.462 57.8078 818.575 158.895 919.668C259.982 1020.76 396.899 1078.57 539.858 1078.57C356.381 1019.95 356.568 810.598 356.568 810.598L356.568 539.159V269.452C356.568 269.452 349.893 34.363 540.044 -0.569824Z" fill="url(#paint2_linear_1001_90)"/>
<path d="M540.044 -0.569824C397.085 -0.569824 259.982 56.2241 158.895 157.318C57.8078 258.412 1.01771 395.525 1.0177 538.493C1.01769 681.462 57.8078 818.575 158.895 919.668C259.982 1020.76 396.899 1078.57 539.858 1078.57C356.381 1019.95 356.568 810.598 356.568 810.598L356.568 539.159V269.452C356.568 269.452 349.893 34.363 540.044 -0.569824Z" fill="url(#paint3_linear_1001_90)" fill-opacity="0.3"/>
<path d="M539.857 1078.55C357.797 995.621 356.782 810.52 356.782 810.52C356.782 810.52 131.129 937.812 55.1621 775.004C55.1621 775.004 183.737 1079.63 539.857 1078.55Z" fill="#473ADE"/>
</g>
<defs>
<linearGradient id="paint0_linear_1001_90" x1="1015.74" y1="478.287" x2="231.442" y2="1252.66" gradientUnits="userSpaceOnUse">
<stop stop-opacity="0.6"/>
<stop offset="0.655513" stop-opacity="0"/>
</linearGradient>
<linearGradient id="paint1_linear_1001_90" x1="216.994" y1="186.221" x2="1297.84" y2="384.517" gradientUnits="userSpaceOnUse">
<stop stop-opacity="0.6"/>
<stop offset="0.645833" stop-opacity="0"/>
</linearGradient>
<linearGradient id="paint2_linear_1001_90" x1="289.682" y1="1010.78" x2="-30.9809" y2="23.1052" gradientUnits="userSpaceOnUse">
<stop stop-opacity="0.6"/>
<stop offset="0.675464" stop-opacity="0"/>
</linearGradient>
<linearGradient id="paint3_linear_1001_90" x1="289.682" y1="1010.78" x2="-30.9809" y2="23.1052" gradientUnits="userSpaceOnUse">
<stop stop-opacity="0.6"/>
<stop offset="0.675464" stop-opacity="0"/>
</linearGradient>
<clipPath id="clip0_1001_90">
<rect width="1080" height="1080" fill="white"/>
</clipPath>
</defs>
</svg>
